<?xml version="1.0" encoding="utf-8"?>
<!-- Generator: Adobe Illustrator 15.0.2, SVG Export Plug-In . SVG Version: 6.00 Build 0)  -->
<!DOCTYPE svg PUBLIC "-//W3C//DTD SVG 1.0//EN" "http://www.w3.org/TR/2001/REC-SVG-20010904/DTD/svg10.dtd">
<svg version="1.0" id="Layer_1" xmlns="http://www.w3.org/2000/svg" xmlns:xlink="http://www.w3.org/1999/xlink" x="0px" y="0px"
	 width="276.522px" height="252.591px" viewBox="0 0 276.522 252.591" enable-background="new 0 0 276.522 252.591"
	 xml:space="preserve">
<g>
	<path fill="#304A5D" d="M268.71,107.968H9.66c-5.336,0-9.66,4.318-9.66,9.666v73.134c0,5.347,4.324,9.671,9.66,9.671h120.341
		v24.404c-3.587,2.86-5.941,7.206-5.941,12.146c0,8.599,7.003,15.602,15.612,15.602c8.599,0,15.591-7.003,15.591-15.602
		c0-4.94-2.35-9.297-5.931-12.158v-24.393H268.71c5.336,0,9.672-4.324,9.672-9.671v-73.134
		C278.382,112.287,274.046,107.968,268.71,107.968z M259.044,181.108H19.332v-53.813h239.712V181.108z"/>
	<path fill="#304A5D" d="M226.691,170.314c8.593,0,15.591-6.997,15.591-15.602c0-8.604-6.998-15.596-15.591-15.596
		c-8.604,0-15.612,6.992-15.612,15.596C211.079,163.317,218.087,170.314,226.691,170.314z M226.691,150.713
		c2.2,0,3.994,1.788,3.994,3.999c0,2.201-1.794,3.994-3.994,3.994c-2.212,0-4.005-1.793-4.005-3.994
		C222.687,152.501,224.479,150.713,226.691,150.713z"/>
	<path fill="#304A5D" d="M268.71,0H9.66C4.324,0,0,4.33,0,9.666v73.14c0,5.342,4.324,9.671,9.66,9.671h259.05
		c5.336,0,9.672-4.33,9.672-9.671V9.666C278.382,4.33,274.046,0,268.71,0z M259.044,73.14H19.332V19.337h239.712V73.14z"/>
	<path fill="#304A5D" d="M226.691,62.346c8.593,0,15.591-6.998,15.591-15.602c0-8.604-6.998-15.602-15.591-15.602
		c-8.604,0-15.612,6.997-15.612,15.602C211.079,55.348,218.087,62.346,226.691,62.346z M226.691,42.75
		c2.2,0,3.994,1.793,3.994,3.994c0,2.2-1.794,4.005-3.994,4.005c-2.212,0-4.005-1.805-4.005-4.005
		C222.687,44.544,224.479,42.75,226.691,42.75z"/>
	<path fill="#304A5D" d="M266.851,227.318h-23.199c-5.342,0-9.665,4.324-9.665,9.671c0,5.336,4.323,9.66,9.665,9.66h23.199
		c5.342,0,9.672-4.324,9.672-9.66C276.522,231.642,272.192,227.318,266.851,227.318z"/>
	<path fill="#304A5D" d="M208.845,227.318h-23.198c-5.342,0-9.666,4.324-9.666,9.671c0,5.336,4.324,9.66,9.666,9.66h23.198
		c5.342,0,9.672-4.324,9.672-9.66C218.517,231.642,214.187,227.318,208.845,227.318z"/>
	<path fill="#304A5D" d="M92.845,227.318H69.641c-5.347,0-9.671,4.324-9.671,9.671c0,5.336,4.324,9.66,9.671,9.66h23.204
		c5.337,0,9.66-4.324,9.66-9.66C102.505,231.642,98.182,227.318,92.845,227.318z"/>
	<path fill="#304A5D" d="M34.84,227.318H11.635c-5.347,0-9.666,4.324-9.666,9.671c0,5.336,4.318,9.66,9.666,9.66H34.84
		c5.336,0,9.665-4.324,9.665-9.66C44.505,231.642,40.176,227.318,34.84,227.318z"/>
</g>
</svg>
