<?xml version="1.0" encoding="utf-8"?>
<!-- Generator: Adobe Illustrator 15.0.2, SVG Export Plug-In . SVG Version: 6.00 Build 0)  -->
<!DOCTYPE svg PUBLIC "-//W3C//DTD SVG 1.0//EN" "http://www.w3.org/TR/2001/REC-SVG-20010904/DTD/svg10.dtd">
<svg version="1.0" id="Layer_1" xmlns="http://www.w3.org/2000/svg" xmlns:xlink="http://www.w3.org/1999/xlink" x="0px" y="0px"
	 width="307.17px" height="222.045px" viewBox="0 0 307.17 222.045" enable-background="new 0 0 307.17 222.045"
	 xml:space="preserve">
<g>
	<path fill="#304A5D" d="M300.774,0h-65.513c-3.528,0-6.39,2.861-6.39,6.39v209.265c0,3.534,2.862,6.39,6.39,6.39h65.513
		c3.535,0,6.396-2.855,6.396-6.39V6.39C307.17,2.861,304.309,0,300.774,0z M241.657,57.468V39.322h52.727v18.146H241.657z
		 M294.384,12.786v15.381h-52.727V12.786H294.384z M241.657,209.259V68.629h52.727v140.63H241.657z"/>
	<path fill="#304A5D" d="M252.116,117.785c-2.838,0-5.142,2.315-5.142,5.142c0,2.837,2.304,5.135,5.142,5.135
		c2.837,0,5.141-2.298,5.141-5.135C257.256,120.101,254.953,117.785,252.116,117.785z"/>
	<path fill="#304A5D" d="M198.952,19.788H9.676C4.347,19.788,0,24.281,0,29.804v146.607c0,5.529,4.347,10.016,9.676,10.016h67.404
		l-8.221,25.391c-2.237,5.808-0.94,9.591,11.125,9.591h26.178l0,0h26.178c12.065,0,13.356-3.783,11.125-9.591l-8.227-25.391h63.712
		c5.335,0,9.676-4.486,9.676-10.016V29.804C208.628,24.281,204.287,19.788,198.952,19.788z M106.163,176.381
		c-2.837,0-5.153-2.31-5.153-5.147c0-2.85,2.316-5.153,5.153-5.153c2.843,0,5.153,2.304,5.153,5.153
		C111.316,174.071,109.006,176.381,106.163,176.381z M196.181,156.604H12.453V37.916c0-3.383,2.722-6.147,6.068-6.147h171.592
		c3.34,0,6.068,2.765,6.068,6.147V156.604z"/>
</g>
<path fill="#304A5D" d="M160.158,87.272c-0.461-23.067-24.491-41.61-54.879-42.289c-0.345-0.02-0.701-0.023-1.045-0.023
	l-0.674,0.002c-30.19,0-54.398,17.978-55.107,40.913c-0.013,0.236-0.013,0.52-0.013,0.75c0.031,13.241,8.292,25.839,22.163,33.874
	c-0.93,1.699-2.593,4.36-4.791,7.664c-1.311,2.002-2.671,4.109-3.746,6.011l-0.392,0.734c-0.857,1.608-1.599,2.999-1.697,5.002
	c-0.295,1.595,1.157,4.455,3.398,4.936l0.285,0.074c0.435,0.098,0.811,0.142,1.255,0.142h0.035l0.037-0.003
	c2.478-0.155,4.344-1.14,6.707-2.385l1.292-0.676c2.911-1.603,6.359-3.711,9.691-5.753c1.647-1.005,3.283-2.006,4.847-2.943
	c2.593-1.569,4.67-2.759,6.167-3.53c0.818-0.414,1.519-0.729,2.015-0.928c0.088-0.032,0.166-0.063,0.23-0.085
	c2.396,0.299,4.828,0.478,7.44,0.549l1.671,0.015c30.192-0.008,54.397-17.989,55.106-40.937l0.003-0.058
	c0.001-0.062,0.004-0.129,0.004-0.195l0.028-0.86H160.158z M73.787,131.05c1.298-1.997,2.658-4.103,3.735-6.03l0.328-0.617
	c0.896-1.671,1.667-3.113,1.774-5.249c0.123-1.282-0.646-3.627-2.661-4.568c-12.72-6.548-20.296-17.001-20.274-27.963
	c0-0.176-0.004-0.323,0.008-0.487c0.196-18.162,21.221-32.937,46.862-32.937c0.502,0,0.97,0.006,1.435,0.028
	c26.092,0.561,47.14,15.999,46.923,34.428l-0.002,0.562c-0.204,18.118-21.225,32.855-46.868,32.855
	c-0.492,0-0.996-0.004-1.514-0.018c-2.358-0.051-4.721-0.23-6.939-0.515c-0.144-0.033-0.479-0.063-0.853-0.06
	c-2.436,0.163-4.202,1.112-6.439,2.311l-1.432,0.762c-2.697,1.501-5.908,3.47-9.016,5.37c-1.842,1.129-3.689,2.261-5.45,3.31
	c-0.224,0.133-0.446,0.264-0.664,0.394C73.086,132.097,73.437,131.568,73.787,131.05z"/>
</svg>
